<svg width="335" height="50" viewBox="0 0 335 50" fill="none" xmlns="http://www.w3.org/2000/svg">
<rect width="335" height="50" rx="12" fill="#FEE500"/>
<path d="M36 23C36 27.4183 31.5228 31 26 31C25.3716 31 24.7567 30.9536 24.1604 30.8649L19 34.5L20.1691 29.5C17.6443 28.0479 16 25.6776 16 23C16 18.5817 20.4772 15 26 15C31.5228 15 36 18.5817 36 23Z" fill="black"/>
<path d="M141.251 19.1299C141.243 23.3882 139.79 27.2896 134.478 29.9043L133.747 28.9082C136.52 27.5552 138.188 25.8452 139.084 23.8613L134.029 24.3428L133.813 23.1973L139.483 22.8154C139.749 21.9854 139.898 21.1138 139.956 20.209H134.561V19.1299H141.251ZM143.725 32.3447V17.5859H145.02V23.5957H147.41V24.6914H145.02V32.3447H143.725ZM155.943 19.1299C155.935 23.3882 154.482 27.2896 149.17 29.9043L148.439 28.9082C151.212 27.5552 152.88 25.8452 153.777 23.8613L148.722 24.3428L148.506 23.1973L154.175 22.8154C154.441 21.9854 154.59 21.1138 154.648 20.209H149.253V19.1299H155.943ZM158.417 32.3447V17.5859H159.712V23.5957H162.103V24.6914H159.712V32.3447H158.417ZM169.706 18.5488C172.844 18.5654 175.102 20.0928 175.102 22.417C175.102 24.6167 173.143 26.0693 170.337 26.2603V29.3564H176.496V30.4521H162.982V29.3564H169.059V26.2603C166.27 26.061 164.311 24.6084 164.311 22.417C164.311 20.0928 166.577 18.5654 169.706 18.5488ZM165.572 22.417C165.564 24.1187 167.315 25.2227 169.706 25.2393C172.097 25.2227 173.84 24.1187 173.84 22.417C173.84 20.7485 172.097 19.6196 169.706 19.6279C167.315 19.6196 165.564 20.7485 165.572 22.417ZM195.455 29.4229V30.5186H181.941V29.4229H188.018V26.6338H183.635V22.085H192.467V19.7607H183.602V18.6816H193.745V23.1475H184.93V25.5547H194.094V26.6338H189.296V29.4229H195.455ZM208.271 19.1631V20.6406C208.271 22.5 208.271 24.6001 207.724 27.8125L206.396 27.6797C206.993 24.6582 206.993 22.4502 206.993 20.6406V20.2422H198.095V19.1631H208.271ZM196.634 30.1699V29.0908H210.081V30.1699H196.634ZM223.512 17.6025V28.3936H222.217V17.6025H223.512ZM211.675 22.251C211.667 20.126 213.335 18.6401 215.543 18.6318C217.751 18.6401 219.403 20.126 219.411 22.251C219.403 24.4009 217.751 25.895 215.543 25.8867C213.335 25.895 211.667 24.4009 211.675 22.251ZM212.953 22.251C212.937 23.7202 214.049 24.7412 215.543 24.7412C217.012 24.7412 218.133 23.7202 218.133 22.251C218.133 20.8066 217.012 19.7773 215.543 19.7773C214.049 19.7773 212.937 20.8066 212.953 22.251ZM213.982 32.0293V27.2979H215.277V30.9336H223.977V32.0293H213.982Z" fill="#171717"/>
</svg>
