<svg width="100" height="100" viewBox="0 0 100 100" fill="none" xmlns="http://www.w3.org/2000/svg">
<path d="M50.0217 99.7955C31.1755 99.7955 14.7565 89.3907 6.25654 74.0263C-12.4959 40.1498 13.3696 -0.974535 51.1275 0.230334C75.1468 0.716018 95.4362 18.3594 99.3067 41.8217C104.386 72.1022 80.9103 99.7955 50.0217 99.7955Z" fill="url(#paint0_radial_83_545)"/>
<g opacity="0.75">
<path d="M69.8614 58.0548C67.7903 57.5411 67.2186 60.1096 68.3901 60.6887C69.5615 61.2771 72.5042 63.0331 73.0946 61.8562C73.685 60.6887 72.2137 58.6432 69.8614 58.0548Z" fill="#056DB1"/>
<path d="M90.4319 36.3858C88.4264 36.8435 86.0273 37.8522 88.0797 39.3186C90.1414 40.785 93.3652 40.1965 93.6651 38.4406C93.9556 36.6753 94.2555 35.5078 90.4319 36.3858Z" fill="#056DB1"/>
<path d="M50.1718 83.5345C45.8609 80.9566 39.5913 80.0226 39.0009 82.6565C38.4105 85.2904 42.5246 89.3907 47.5196 88.8023C52.524 88.2232 53.1145 85.2904 50.1718 83.5345Z" fill="#056DB1"/>
<path d="M64.2291 97.7501C60.3399 98.8989 56.2539 99.5901 52.0273 99.7489C52.9926 93.6498 58.8123 95.5739 61.9237 96.4145C62.8327 96.6667 63.5919 97.1617 64.2291 97.7501Z" fill="#056DB1"/>
<path d="M22.8442 83.2449C24.7466 84.0762 26.0774 80.0226 23.4346 76.5107C20.7918 72.9988 19.611 68.5997 16.3778 67.7217C13.1446 66.8437 11.3828 78.2667 22.8442 83.2449Z" fill="#056DB1"/>
<path d="M9.91162 68.8892C8.87137 69.076 8.44029 71.2335 10.7925 71.5231C13.1448 71.822 13.1448 68.3101 9.91162 68.8892Z" fill="#056DB1"/>
<path d="M36.0676 56.8874C33.9965 56.7006 31.9535 57.7653 32.244 60.1097C32.5345 62.454 35.7677 60.1097 37.239 60.1097C38.7104 60.1097 39.3008 57.1769 36.0676 56.8874Z" fill="#056DB1"/>
<path d="M56.3475 29.6516C54.5669 28.811 54.2858 32.5844 55.7571 33.1635C57.2285 33.7519 61.3426 31.9866 56.3475 29.6516Z" fill="#056DB1"/>
</g>
<path d="M37.5388 48.6868C27.5487 50.4427 26.0774 50.7323 16.9682 58.3538C10.9423 63.3881 4.654 61.7629 1.09281 60.0817C0.427433 56.8313 0.0712891 53.4596 0.0712891 50.0037C0.0712891 35.8442 6.0035 23.0576 15.525 13.9977C17.4837 15.1559 19.5079 16.725 21.0823 18.8172C25.487 24.6734 24.606 27.0178 37.5388 33.752C50.4621 40.4862 47.5288 46.9308 37.5388 48.6868Z" fill="url(#paint1_linear_83_545)"/>
<path d="M95.1737 28.6709C85.9521 26.7468 79.6638 37.1424 73.3848 36.3858C66.0375 35.5078 68.0992 24.6733 61.9234 13.2504C58.8308 7.53432 58.6152 3.57413 59.1681 1.05231C75.1279 3.98509 88.4168 14.4833 95.1737 28.6709Z" fill="url(#paint2_linear_83_545)"/>
<path d="M99.9817 50.0037C99.9817 69.3283 88.942 86.075 72.8042 94.3316C69.1212 88.5315 75.0909 84.2257 82.2039 79.7331C91.0225 74.1664 82.7943 71.8221 84.2563 62.7435C85.7276 53.665 80.1421 53.0765 82.7849 45.4644C84.6686 40.0285 94.49 45.1842 99.9536 48.584C99.9723 49.051 99.9817 49.5273 99.9817 50.0037Z" fill="url(#paint3_linear_83_545)"/>
<path d="M53.1142 65.0879C47.7724 66.7411 44.886 60.3992 38.1291 61.8656C31.3722 63.332 25.7868 75.3339 34.8959 75.0444C44.0051 74.7549 46.3573 73.578 53.1142 78.2667C59.8711 82.9554 67.8089 79.7331 70.1611 72.4105C72.504 65.0879 71.0326 59.5212 53.1142 65.0879Z" fill="url(#paint4_linear_83_545)"/>
<path d="M64.2759 43.12C61.4644 44.0167 60.7522 45.4644 61.6331 47.2203C62.514 48.9762 66.0378 48.6867 67.7996 51.3206C69.5615 53.9545 73.9754 57.1768 75.1469 51.3206C76.3277 45.4644 70.7423 41.0652 64.2759 43.12Z" fill="url(#paint5_linear_83_545)"/>
<path opacity="0.5" d="M53.9955 27.8864C53.4706 31.7906 49.8813 27.8864 44.0054 26.7189C38.1294 25.5514 35.7772 22.0302 38.4199 19.6858C41.0627 17.3415 44.5864 15.5855 48.1195 17.631C51.6432 19.6858 54.5765 23.4966 53.9955 27.8864Z" fill="#056DB1"/>
<path d="M47.8198 4.75105C40.4725 4.75105 36.9488 8.85135 30.192 11.1957C26.1622 12.5874 22.9759 10.9715 21.0547 9.43977C29.2267 3.63025 39.2261 0.211792 50.0315 0.211792C50.4064 0.211792 50.7719 0.211782 51.1374 0.230462C51.6528 2.34132 51.4654 4.75105 47.8198 4.75105Z" fill="url(#paint6_linear_83_545)"/>
<path opacity="0.45" d="M97.601 65.2373C93.5244 77.8931 84.4996 88.3446 72.8039 94.3316C70.0768 95.7232 67.2091 96.8721 64.229 97.7594C60.3398 98.9082 56.2537 99.5994 52.0272 99.7582C51.3618 99.7862 50.6964 99.7955 50.0217 99.7955C31.1755 99.7955 14.7565 89.3907 6.25652 74.0263C3.87615 69.7298 2.11431 65.0411 1.09281 60.0815C0.427433 56.8312 0.0712891 53.4594 0.0712891 50.0036C0.0712891 43.9886 1.13966 38.2258 3.09831 32.8926C8.74936 49.7141 21.6821 71.4204 51.0807 75.4459C56.8161 76.2305 62.1766 76.3333 67.181 75.9036C79.4577 74.8295 89.5602 70.5518 97.601 65.2373Z" fill="url(#paint7_linear_83_545)"/>
<path opacity="0.45" d="M99.9812 50.0035C99.9812 55.318 99.1472 60.4364 97.6009 65.2372C93.5242 77.893 84.4994 88.3445 72.8037 94.3315C70.0766 95.7232 67.2089 96.872 64.2288 97.7593C60.3396 98.9082 56.2536 99.5993 52.027 99.7581C51.3616 99.7861 50.6963 99.7955 50.0215 99.7955C31.1753 99.7955 14.7563 89.3906 6.25635 74.0262C14.8969 77.5661 25.1869 79.9852 37.3886 80.4615C49.2249 80.9285 59.0463 79.1072 67.1808 75.8942C84.6681 69.0012 94.4145 55.6636 99.7001 44.6797C99.8407 45.9593 99.925 47.2669 99.9625 48.5745C99.9719 49.0509 99.9812 49.5272 99.9812 50.0035Z" fill="url(#paint8_linear_83_545)"/>
<path d="M99.316 41.8496C99.316 41.8496 92.203 15.8842 59.4963 7.33805C39.891 2.21035 26.2835 6.83368 18.5332 11.3543C43.2835 -8.78292 81.1352 -0.787821 95.1738 28.6708C98.4351 35.4984 99.0817 40.8969 99.316 41.8496Z" fill="url(#paint9_linear_83_545)"/>
<defs>
<radialGradient id="paint0_radial_83_545" cx="0" cy="0" r="1" gradientUnits="userSpaceOnUse" gradientTransform="translate(52.5019 30.5185) scale(60.6286 60.4249)">
<stop stop-color="#00B3DC"/>
<stop offset="1" stop-color="#056DB0"/>
</radialGradient>
<linearGradient id="paint1_linear_83_545" x1="17.1982" y1="-26.7603" x2="28.5819" y2="116.454" gradientUnits="userSpaceOnUse">
<stop stop-color="#F2F236"/>
<stop offset="1" stop-color="#F2F236" stop-opacity="0"/>
</linearGradient>
<linearGradient id="paint2_linear_83_545" x1="73.2565" y1="-31.2163" x2="84.6403" y2="111.998" gradientUnits="userSpaceOnUse">
<stop stop-color="#F2F236"/>
<stop offset="1" stop-color="#F2F236" stop-opacity="0"/>
</linearGradient>
<linearGradient id="paint3_linear_83_545" x1="77.7079" y1="-31.5702" x2="89.0918" y2="111.644" gradientUnits="userSpaceOnUse">
<stop stop-color="#F2F236"/>
<stop offset="1" stop-color="#F2F236" stop-opacity="0"/>
</linearGradient>
<linearGradient id="paint4_linear_83_545" x1="42.7028" y1="-28.7877" x2="54.0865" y2="114.427" gradientUnits="userSpaceOnUse">
<stop stop-color="#F2F236"/>
<stop offset="1" stop-color="#F2F236" stop-opacity="0"/>
</linearGradient>
<linearGradient id="paint5_linear_83_545" x1="62.0468" y1="-30.3255" x2="73.4306" y2="112.89" gradientUnits="userSpaceOnUse">
<stop stop-color="#F2F236"/>
<stop offset="1" stop-color="#F2F236" stop-opacity="0"/>
</linearGradient>
<linearGradient id="paint6_linear_83_545" x1="33.5122" y1="-28.0571" x2="44.896" y2="115.158" gradientUnits="userSpaceOnUse">
<stop stop-color="#F2F236"/>
<stop offset="1" stop-color="#F2F236" stop-opacity="0"/>
</linearGradient>
<linearGradient id="paint7_linear_83_545" x1="42.4281" y1="114.462" x2="49.8715" y2="46.3666" gradientUnits="userSpaceOnUse">
<stop stop-color="#00ACD8"/>
<stop offset="1" stop-color="#0983BD"/>
</linearGradient>
<linearGradient id="paint8_linear_83_545" x1="47.4659" y1="111.535" x2="55.7851" y2="40.3633" gradientUnits="userSpaceOnUse">
<stop stop-color="#056EB1"/>
<stop offset="1" stop-color="#00A9D7" stop-opacity="0.3"/>
</linearGradient>
<linearGradient id="paint9_linear_83_545" x1="86.3036" y1="-27.2106" x2="55.0283" y2="34.6709" gradientUnits="userSpaceOnUse">
<stop stop-color="#E2FFB5"/>
<stop offset="1" stop-color="#FFFFB3" stop-opacity="0"/>
</linearGradient>
</defs>
</svg>
